<svg width="46" height="46" viewBox="0 0 46 46" fill="none" xmlns="http://www.w3.org/2000/svg">
<path d="M44.5833 38.75L34.5833 28.75C36.4583 25.8333 37.5 22.5 37.5 18.75C37.5 8.33333 29.1667 0 18.75 0C8.33333 0 0 8.33333 0 18.75C0 29.1667 8.33333 37.5 18.75 37.5C22.5 37.5 25.8333 36.4583 28.75 34.5833L38.75 44.5833C39.5833 45.4167 40.625 45.8333 41.6667 45.8333C43.9583 45.8333 45.8333 43.9583 45.8333 41.6667C45.8333 40.4167 45.4167 39.375 44.5833 38.75ZM8.33333 18.75C8.33333 12.9167 12.9167 8.33333 18.75 8.33333C24.5833 8.33333 29.1667 12.9167 29.1667 18.75C29.1667 24.5833 24.5833 29.1667 18.75 29.1667C12.9167 29.1667 8.33333 24.5833 8.33333 18.75Z" fill="#F9A237"/>
</svg>
